<svg xmlns="http://www.w3.org/2000/svg" xmlns:xlink="http://www.w3.org/1999/xlink" viewBox="0 0 201.05 200.46"><defs><style>.cls-1{fill:url(#linear-gradient);}.cls-2{fill:url(#linear-gradient-2);}.cls-3{fill:url(#linear-gradient-3);}</style><linearGradient id="linear-gradient" x1="194.51" y1="47.22" x2="90.29" y2="213.7" gradientUnits="userSpaceOnUse"><stop offset="0" stop-color="#80E2FF"/><stop offset="0.12" stop-color="#BDF2FF"/><stop offset="0.35" stop-color="#BDF2FF"/><stop offset="0.56" stop-color="#BDF2FF"/><stop offset="0.64" stop-color="#80E2FF"/><stop offset="0.76" stop-color="#80E2FF"/><stop offset="0.9" stop-color="#BA9FE7"/><stop offset="1" stop-color="#BDF2FF"/></linearGradient><linearGradient id="linear-gradient-2" x1="30.46" y1="104.26" x2="159.05" y2="10.87" xlink:href="#linear-gradient"/><linearGradient id="linear-gradient-3" x1="115.92" y1="75.27" x2="52.31" y2="179.49" xlink:href="#linear-gradient"/></defs><title>Asset 2</title><g id="Layer_2" data-name="Layer 2"><g id="Layer_3" data-name="Layer 3"><path class="cls-1" d="M199.22,80.23c1.72,14.09-13.74,82.15-60.33,103.37C173.45,164.41,220,74.43,173.45,31.22a56.9,56.9,0,0,0-21.07-8.13c67.79,23.57,10.94,186.67-101.1,164.84a101,101,0,0,0,48.82,12.53C167.65,200.46,210.63,138,199.22,80.23Z"/><path class="cls-2" d="M43.21,168.17c-1.37,5.91-6.3,5.54-18.74-10.65C-30.32,86.43,109.21-9,173.45,31.22,135.81-7.93,70.31-12.09,28.76,29.2A99.49,99.49,0,0,0,0,88.55C5.3,72.71,42.86,3.68,120.44,15.31c-45.77-2.49-82.62,24-101.87,49.43-28.08,37-14.84,85.39,13.31,109.16C40.11,178.62,42.51,173.65,43.21,168.17Z"/><path class="cls-3" d="M38.73,132.23c1.21,6.67,6.4,27.58,4.48,35.94-.7,5.48-3.1,10.45-11.33,5.73,19.48,16,18.76-21.32,43.53-55.11.83-1.12-1.11-28.78-.23-29.9.51-.64,3.82,25.25,4.35,24.62a103.37,103.37,0,0,1,15-14.81c.59-.48,3.38-19.68,4-20.15s-1.15,18-.61,17.57c6.43-4.73,19.68-11.62,28.25-15.2-4.29,2.51-16.69,10-22.35,14.91l20.6-1.37S100.59,98.64,100,99.25c-2.63,2.47-11.83,12.46-21,27.1-.56.91,29.41-3.7,28.85-2.76s-31.73,7.56-32.33,8.6a140.07,140.07,0,0,0-14.66,35.92c95.4,23.92,96-103.37,96.38-134.24C132,70.61,24.87,57.28,38.73,132.23Z"/></g></g></svg>